<?xml version="1.0" encoding="UTF-8" standalone="no"?>
<svg
   width="64"
   height="64"
   version="1.1"
   id="svg1"
   xmlns="http://www.w3.org/2000/svg"
   xmlns:svg="http://www.w3.org/2000/svg">
  <defs
     id="defs1" />
  <path
     fill="#ef9f4c"
     d="M 12,0 C 5.352014,0 0,5.352014 0,12 v 40 c 0,6.647984 5.352014,12 12,12 h 40 c 6.647984,0 12,-5.352016 12,-12 V 12 C 64,5.352014 58.647984,0 52,0 Z m 0,4 h 40 c 4.431992,0 8,3.568009 8,8 v 40 c 0,4.431992 -3.568008,8 -8,8 H 12 C 7.568009,60 4,56.431992 4,52 V 12 C 4,7.568009 7.568009,4 12,4 Z m 4,8 c -2.215998,0 -4,1.784002 -4,4 v 12 c 0,2.215998 1.784002,4 4,4 h 8 v 16 c 0,2.215996 1.784002,4 4,4 h 20 c 2.215996,0 4,-1.784004 4,-4 V 28 c 0,-2.215998 -1.784004,-4 -4,-4 H 32 v -8 c 0,-2.215998 -1.784002,-4 -4,-4 z"
     id="path1"
     style="stroke-width:4" />
</svg>
