<?xml version="1.0" encoding="UTF-8" standalone="no"?>
<!DOCTYPE svg PUBLIC "-//W3C//DTD SVG 1.1//EN" "http://www.w3.org/Graphics/SVG/1.1/DTD/svg11.dtd">
<svg width="100%" height="100%" viewBox="0 0 32 32" version="1.1" xmlns="http://www.w3.org/2000/svg" xmlns:xlink="http://www.w3.org/1999/xlink" xml:space="preserve" xmlns:serif="http://www.serif.com/" style="fill-rule:evenodd;clip-rule:evenodd;stroke-linecap:round;stroke-linejoin:round;stroke-miterlimit:1.5;">
    <rect id="Artboard1" x="0" y="0" width="32" height="32" style="fill:none;"/>
    <g id="Artboard11" serif:id="Artboard1">
        <g transform="matrix(1.03705,0,0,1.03705,-0.460588,-0.659827)">
            <g id="BG">
                <path d="M30.337,8.833C30.337,4.841 27.096,1.601 23.104,1.601L8.64,1.601C4.649,1.601 1.408,4.841 1.408,8.833L1.408,23.297C1.408,27.288 4.649,30.529 8.64,30.529L23.104,30.529C27.096,30.529 30.337,27.288 30.337,23.297L30.337,8.833Z" style="fill:none;stroke:rgb(225,142,57);stroke-width:0.96px;"/>
            </g>
        </g>
        <g id="Guard">
            <path d="M15.997,7.724C21.055,7.683 25.057,10.555 25.057,10.555C25.057,10.555 21.812,25.697 16.003,25.584C10.544,25.477 6.943,10.644 6.943,10.644C6.943,10.644 10.863,7.765 15.997,7.724Z" style="fill:rgb(225,142,57);stroke:rgb(225,142,57);stroke-width:2px;"/>
            <g transform="matrix(1,0,0,1,-3.07883,3.66101)">
                <g transform="matrix(16,0,0,16,13.8846,17.7302)">
                    <path d="M0.475,-0.084C0.446,-0.052 0.415,-0.028 0.38,-0.012C0.346,0.004 0.309,0.012 0.27,0.012C0.196,0.012 0.138,-0.013 0.095,-0.062C0.06,-0.102 0.043,-0.147 0.043,-0.197C0.043,-0.242 0.057,-0.281 0.086,-0.317C0.114,-0.353 0.157,-0.384 0.213,-0.411C0.181,-0.448 0.16,-0.478 0.149,-0.501C0.138,-0.525 0.133,-0.547 0.133,-0.568C0.133,-0.611 0.15,-0.649 0.183,-0.68C0.217,-0.712 0.259,-0.728 0.311,-0.728C0.359,-0.728 0.399,-0.713 0.43,-0.683C0.462,-0.653 0.477,-0.617 0.477,-0.575C0.477,-0.507 0.432,-0.449 0.342,-0.401L0.47,-0.237C0.485,-0.266 0.496,-0.299 0.504,-0.337L0.596,-0.317C0.58,-0.255 0.559,-0.203 0.532,-0.163C0.565,-0.119 0.602,-0.083 0.644,-0.053L0.585,0.017C0.549,-0.006 0.513,-0.04 0.475,-0.084ZM0.296,-0.458C0.334,-0.48 0.359,-0.5 0.37,-0.517C0.382,-0.534 0.387,-0.552 0.387,-0.573C0.387,-0.597 0.379,-0.617 0.364,-0.633C0.349,-0.648 0.329,-0.656 0.306,-0.656C0.282,-0.656 0.263,-0.648 0.247,-0.633C0.231,-0.618 0.223,-0.599 0.223,-0.577C0.223,-0.566 0.226,-0.554 0.232,-0.542C0.237,-0.53 0.246,-0.517 0.257,-0.503L0.296,-0.458ZM0.42,-0.154L0.259,-0.354C0.211,-0.325 0.179,-0.299 0.163,-0.275C0.146,-0.25 0.138,-0.226 0.138,-0.203C0.138,-0.174 0.149,-0.144 0.172,-0.112C0.195,-0.081 0.228,-0.065 0.271,-0.065C0.297,-0.065 0.324,-0.074 0.352,-0.09C0.38,-0.107 0.403,-0.128 0.42,-0.154Z" style="fill-rule:nonzero;"/>
                </g>
            </g>
        </g>
    </g>
</svg>
