<?xml version="1.0" encoding="UTF-8" standalone="no"?>
<!DOCTYPE svg PUBLIC "-//W3C//DTD SVG 1.1//EN" "http://www.w3.org/Graphics/SVG/1.1/DTD/svg11.dtd">
<svg width="100%" height="100%" viewBox="0 0 32 32" version="1.1" xmlns="http://www.w3.org/2000/svg" xmlns:xlink="http://www.w3.org/1999/xlink" xml:space="preserve" xmlns:serif="http://www.serif.com/" style="fill-rule:evenodd;clip-rule:evenodd;stroke-linecap:round;stroke-linejoin:round;stroke-miterlimit:1.5;">
    <rect id="Artboard1" x="0" y="0" width="32" height="32" style="fill:none;"/>
    <g id="Artboard11" serif:id="Artboard1">
        <g transform="matrix(1.03705,0,0,1.03705,-0.460588,-0.659827)">
            <g id="BG">
                <path d="M30.337,8.833C30.337,4.841 27.096,1.601 23.104,1.601L8.64,1.601C4.649,1.601 1.408,4.841 1.408,8.833L1.408,23.297C1.408,27.288 4.649,30.529 8.64,30.529L23.104,30.529C27.096,30.529 30.337,27.288 30.337,23.297L30.337,8.833Z" style="fill:none;stroke:rgb(225,142,57);stroke-width:0.96px;"/>
            </g>
        </g>
        <g id="Guard">
            <path d="M15.997,7.724C21.055,7.683 25.057,10.555 25.057,10.555C25.057,10.555 21.812,25.697 16.003,25.584C10.544,25.477 6.943,10.644 6.943,10.644C6.943,10.644 10.863,7.765 15.997,7.724Z" style="fill:rgb(225,142,57);stroke:rgb(225,142,57);stroke-width:2px;"/>
            <g transform="matrix(1,0,0,1,-0.935784,3.97014)">
                <g transform="matrix(16,0,0,16,13.8846,17.7302)">
                    <path d="M0.045,-0L0.14,-0.45L0.061,-0.45L0.075,-0.519L0.154,-0.519L0.169,-0.592C0.177,-0.629 0.185,-0.656 0.193,-0.672C0.201,-0.688 0.215,-0.702 0.234,-0.712C0.252,-0.723 0.278,-0.728 0.31,-0.728C0.333,-0.728 0.365,-0.723 0.408,-0.714L0.392,-0.637C0.362,-0.645 0.337,-0.648 0.316,-0.648C0.299,-0.648 0.286,-0.644 0.277,-0.635C0.268,-0.627 0.26,-0.606 0.254,-0.574L0.242,-0.519L0.341,-0.519L0.327,-0.45L0.228,-0.45L0.134,-0L0.045,-0Z" style="fill-rule:nonzero;"/>
                </g>
            </g>
        </g>
    </g>
</svg>
