<?xml version="1.0" encoding="UTF-8" standalone="no"?>
<!DOCTYPE svg PUBLIC "-//W3C//DTD SVG 1.1//EN" "http://www.w3.org/Graphics/SVG/1.1/DTD/svg11.dtd">
<svg width="100%" height="100%" viewBox="0 0 32 32" version="1.1" xmlns="http://www.w3.org/2000/svg" xmlns:xlink="http://www.w3.org/1999/xlink" xml:space="preserve" xmlns:serif="http://www.serif.com/" style="fill-rule:evenodd;clip-rule:evenodd;stroke-linecap:round;stroke-linejoin:round;stroke-miterlimit:1.5;">
    <rect id="Artboard1" x="0" y="0" width="32" height="32" style="fill:none;"/>
    <g id="Artboard11" serif:id="Artboard1">
        <g transform="matrix(1.03705,0,0,1.03705,-0.460588,-0.659827)">
            <g id="BG">
                <path d="M30.337,8.833C30.337,4.841 27.096,1.601 23.104,1.601L8.64,1.601C4.649,1.601 1.408,4.841 1.408,8.833L1.408,23.297C1.408,27.288 4.649,30.529 8.64,30.529L23.104,30.529C27.096,30.529 30.337,27.288 30.337,23.297L30.337,8.833Z" style="fill:none;stroke:rgb(225,142,57);stroke-width:0.96px;"/>
            </g>
        </g>
        <g id="AnimationPlayerState">
            <g transform="matrix(3.01177,0,0,3.01177,-34.5681,-33.1274)">
                <circle cx="16.79" cy="16.312" r="3.319" style="fill:rgb(225,142,57);"/>
            </g>
            <g transform="matrix(0,0.84600606,-0.84500436,0,22.679759,10.459017)">
                <path d="m 12.460152,12.813814 -11.82024634,0 5.54722964,-9.6080836 a 0.41903335,0.41903335 2.5219891e-7 0 1 0.7257871,0 z"/>
            </g>
            <g transform="rotate(90,10.816558,15.838002)">
                <path d="m 16.084051,15.653079 -10.2102273,0 A 0.57735027,0.57735027 60 0 1 5.3738238,14.787054 L 10.478937,5.9447379 a 0.57735027,0.57735027 2.5219885e-7 0 1 1,0 l 5.105114,8.8423161 a 0.57735027,0.57735027 120 0 1 -0.5,0.866025 z"/>
            </g>
        </g>
    </g>
</svg>
