<?xml version="1.0" encoding="UTF-8" standalone="no"?>
<!DOCTYPE svg PUBLIC "-//W3C//DTD SVG 1.1//EN" "http://www.w3.org/Graphics/SVG/1.1/DTD/svg11.dtd">
<svg width="100%" height="100%" viewBox="0 0 32 32" version="1.1" xmlns="http://www.w3.org/2000/svg" xmlns:xlink="http://www.w3.org/1999/xlink" xml:space="preserve" xmlns:serif="http://www.serif.com/" style="fill-rule:evenodd;clip-rule:evenodd;stroke-linecap:round;stroke-linejoin:round;stroke-miterlimit:1.5;">
    <rect id="Artboard1" x="0" y="0" width="32" height="32" style="fill:none;"/>
    <g id="Artboard11" serif:id="Artboard1">
        <g transform="matrix(1.03705,0,0,1.03705,-0.460588,-0.659827)">
            <g id="BG">
                <path d="M30.337,8.833C30.337,4.841 27.096,1.601 23.104,1.601L8.64,1.601C4.649,1.601 1.408,4.841 1.408,8.833L1.408,23.297C1.408,27.288 4.649,30.529 8.64,30.529L23.104,30.529C27.096,30.529 30.337,27.288 30.337,23.297L30.337,8.833Z" style="fill:none;stroke:rgb(225,142,57);stroke-width:0.96px;"/>
            </g>
        </g>
        <g id="HistoryState">
            <g transform="matrix(1,0,0,1,0.326002,-0.0776194)">
                <path d="M7.731,16.235C7.731,11.827 11.31,8.248 15.718,8.248C20.127,8.248 23.706,11.827 23.706,16.235C23.706,20.644 20.127,24.222 15.718,24.222C13.665,24.222 11.792,23.446 10.377,22.171" style="fill:none;stroke:rgb(225,142,57);stroke-width:2px;"/>
            </g>
            <g transform="matrix(1,0,0,1,0.465717,0)">
                <path d="M7.731,16.235L10.089,16.228L7.707,18.393L5.332,16.235L7.731,16.235Z" style="fill:none;stroke:rgb(225,142,57);stroke-width:2px;"/>
            </g>
            <g transform="matrix(1,0,0,1,0.294954,0.0776194)">
                <path d="M15.646,12.205L15.568,16.908L18.021,18.771" style="fill:none;stroke:rgb(225,142,57);stroke-width:2px;"/>
            </g>
        </g>
    </g>
</svg>
