<?xml version="1.0" encoding="UTF-8" standalone="no"?>
<!DOCTYPE svg PUBLIC "-//W3C//DTD SVG 1.1//EN" "http://www.w3.org/Graphics/SVG/1.1/DTD/svg11.dtd">
<svg width="100%" height="100%" viewBox="0 0 16 16" version="1.1" xmlns="http://www.w3.org/2000/svg" xmlns:xlink="http://www.w3.org/1999/xlink" xml:space="preserve" xmlns:serif="http://www.serif.com/" style="fill-rule:evenodd;clip-rule:evenodd;stroke-linecap:round;stroke-linejoin:round;stroke-miterlimit:1.5;">
    <g transform="matrix(1.10689,0,0,1.14515,-1.10913,-1.48131)">
        <path d="M14.992,5.016C14.992,3.209 13.475,1.743 11.606,1.743L4.824,1.743C2.956,1.743 1.438,3.209 1.438,5.016L1.438,11.562C1.438,13.368 2.956,14.835 4.824,14.835L11.606,14.835C13.475,14.835 14.992,13.368 14.992,11.562L14.992,5.016Z" style="fill:none;stroke:rgb(238,155,76);stroke-width:0.89px;"/>
    </g>
    <g transform="matrix(1,0,0,1,-0.818898,-6.02625)">
        <circle cx="5.003" cy="11.281" r="1.276" style="fill:rgb(238,155,76);stroke:rgb(238,155,76);stroke-width:0.84px;"/>
    </g>
    <g transform="matrix(1,0,0,1,6.78969,-6.02625)">
        <circle cx="5.003" cy="11.281" r="1.276" style="fill:rgb(238,155,76);stroke:rgb(238,155,76);stroke-width:0.84px;"/>
    </g>
    <g transform="matrix(1,0,0,1,6.78969,-0.468078)">
        <circle cx="5.003" cy="11.281" r="1.276" style="fill:rgb(238,155,76);stroke:rgb(238,155,76);stroke-width:0.84px;"/>
    </g>
    <path d="M7.984,2.31L7.984,13.522" style="fill:none;stroke:rgb(238,155,76);stroke-width:0.84px;stroke-dasharray:0.84,1.68,0,0;"/>
    <g transform="matrix(1,0,0,1,-0.818898,-0.468078)">
        <circle cx="5.003" cy="11.281" r="1.276" style="fill:rgb(238,155,76);stroke:rgb(238,155,76);stroke-width:0.84px;"/>
    </g>
</svg>
