<?xml version="1.0" encoding="UTF-8" standalone="no"?>
<!DOCTYPE svg PUBLIC "-//W3C//DTD SVG 1.1//EN" "http://www.w3.org/Graphics/SVG/1.1/DTD/svg11.dtd">
<svg width="100%" height="100%" viewBox="0 0 32 32" version="1.1" xmlns="http://www.w3.org/2000/svg" xmlns:xlink="http://www.w3.org/1999/xlink" xml:space="preserve" xmlns:serif="http://www.serif.com/" style="fill-rule:evenodd;clip-rule:evenodd;stroke-linecap:round;stroke-linejoin:round;stroke-miterlimit:1.5;">
    <path d="M2.751,26.163C2.751,26.163 9.264,27.569 14.887,28.036C21.176,28.559 29.249,27.192 29.249,27.192L28.619,18.541L24.672,14.026C24.672,14.026 21.585,13.858 20.367,11.108C19.15,8.357 17.071,7.853 15.349,7.496C13.627,7.139 10.457,9.869 9.68,10.079C8.903,10.289 9.722,11.717 8.063,14.278C6.404,16.84 7.307,18.667 5.921,19.864C4.535,21.06 2.751,26.163 2.751,26.163" style="fill:url(#_Linear1);"/>
    <path d="M21.816,25.071C21.816,25.071 23.097,21.585 24.714,21.858C26.331,22.131 25.512,21.186 26.268,20.367" style="fill:none;stroke:rgb(174,159,25);stroke-width:1px;"/>
    <g transform="matrix(1,0,0,0.592883,0,8.94162)">
        <path d="M5.438,21.963C5.438,21.963 8.987,25.743 11.801,25.512C14.614,25.281 16.567,23.643 16.567,23.643" style="fill:none;stroke:url(#_Linear2);stroke-width:1.22px;"/>
    </g>
    <g transform="matrix(1,0,0,0.592883,3.65354,1.99149)">
        <path d="M5.438,21.963C5.438,21.963 9.533,27.089 12.346,26.858C15.16,26.627 18.163,29.664 18.163,29.664" style="fill:none;stroke:url(#_Linear3);stroke-width:1.22px;"/>
    </g>
    <defs>
        <linearGradient id="_Linear1" x1="0" y1="0" x2="1" y2="0" gradientUnits="userSpaceOnUse" gradientTransform="matrix(2.09974,-9.07087,9.07087,2.09974,12.6404,23.2021)"><stop offset="0" style="stop-color:rgb(73,64,28);stop-opacity:1"/><stop offset="1" style="stop-color:rgb(140,131,94);stop-opacity:1"/></linearGradient>
        <linearGradient id="_Linear2" x1="0" y1="0" x2="1" y2="0" gradientUnits="userSpaceOnUse" gradientTransform="matrix(11.1286,0,0,3.55873,5.43832,23.7426)"><stop offset="0" style="stop-color:rgb(30,100,0);stop-opacity:1"/><stop offset="0.54" style="stop-color:rgb(207,198,119);stop-opacity:1"/><stop offset="1" style="stop-color:rgb(174,159,25);stop-opacity:1"/></linearGradient>
        <linearGradient id="_Linear3" x1="0" y1="0" x2="1" y2="0" gradientUnits="userSpaceOnUse" gradientTransform="matrix(11.1286,0,0,3.55873,5.43832,23.7426)"><stop offset="0" style="stop-color:rgb(30,100,0);stop-opacity:1"/><stop offset="0.54" style="stop-color:rgb(207,198,119);stop-opacity:1"/><stop offset="1" style="stop-color:rgb(174,159,25);stop-opacity:1"/></linearGradient>
    </defs>
</svg>
